<?xml version="1.0" standalone="no"?>
<!DOCTYPE svg PUBLIC "-//W3C//DTD SVG 20010904//EN"
 "http://www.w3.org/TR/2001/REC-SVG-20010904/DTD/svg10.dtd">
<svg version="1.0" xmlns="http://www.w3.org/2000/svg"
 width="293.000000pt" height="293.000000pt" viewBox="0 0 293.000000 293.000000"
 preserveAspectRatio="xMidYMid meet">
<metadata>
Created by potrace 1.11, written by Peter Selinger 2001-2013
</metadata>
<g transform="translate(0.000000,293.000000) scale(0.100000,-0.100000)"
fill="#000000" stroke="none">
<path d="M1335 2900 c-314 -46 -576 -286 -652 -597 -24 -100 -22 -286 5 -384
120 -444 582 -689 1020 -543 114 38 206 96 303 193 149 149 218 305 226 516 7
174 -23 298 -108 443 -48 80 -189 220 -274 270 -155 91 -345 128 -520 102z
m354 -190 c4 0 13 10 19 23 10 21 11 21 11 -7 1 -26 3 -28 28 -21 l27 6 -19
-21 c-16 -18 -17 -23 -5 -30 8 -6 22 -10 30 -11 8 -1 0 -4 -19 -8 l-35 -6 57
-43 c280 -211 310 -639 62 -887 -114 -115 -234 -165 -395 -165 -156 0 -281 52
-391 162 -178 177 -220 449 -107 686 34 73 135 185 208 232 123 79 292 104
445 64 28 -7 29 -6 16 10 -13 16 -12 17 14 10 27 -7 28 -6 22 27 l-6 34 15
-27 c8 -16 18 -28 23 -28z"/>
<path d="M810 970 l0 -100 645 0 645 0 0 100 0 100 -645 0 -645 0 0 -100z"/>
<path d="M550 420 c0 -133 1 -140 20 -140 18 0 20 7 20 71 0 52 3 70 13 67 7
-3 13 -29 15 -71 3 -59 5 -67 22 -67 18 0 20 7 20 68 0 78 -15 108 -49 99 -20
-5 -21 -2 -21 54 0 52 -2 59 -20 59 -19 0 -20 -7 -20 -140z"/>
<path d="M1920 501 c0 -56 -1 -59 -21 -54 -31 8 -49 -21 -49 -80 0 -71 11 -85
65 -85 l45 0 0 139 c0 132 -1 139 -20 139 -18 0 -20 -7 -20 -59z m-5 -136 c0
-30 -5 -50 -12 -52 -10 -4 -13 11 -13 52 0 41 3 56 13 53 7 -3 12 -23 12 -53z"/>
<path d="M470 475 c0 -14 -4 -25 -10 -25 -5 0 -10 -7 -10 -15 0 -8 5 -15 10
-15 6 0 10 -30 10 -70 0 -56 3 -70 15 -70 12 0 15 14 15 70 0 40 4 70 10 70 6
0 10 7 10 15 0 8 -4 15 -10 15 -5 0 -10 11 -10 25 0 16 -6 25 -15 25 -9 0 -15
-9 -15 -25z"/>
<path d="M1320 475 c0 -14 -4 -25 -10 -25 -5 0 -10 -7 -10 -15 0 -8 5 -15 10
-15 6 0 10 -30 10 -70 0 -56 3 -70 15 -70 12 0 15 14 15 70 0 40 4 70 10 70 6
0 10 7 10 15 0 8 -4 15 -10 15 -5 0 -10 11 -10 25 0 16 -6 25 -15 25 -9 0 -15
-9 -15 -25z"/>
<path d="M1690 475 c0 -14 -4 -25 -10 -25 -5 0 -10 -7 -10 -15 0 -8 5 -15 10
-15 6 0 10 -30 10 -70 0 -56 3 -70 15 -70 12 0 15 14 15 70 0 40 4 70 10 70 6
0 10 7 10 15 0 8 -4 15 -10 15 -5 0 -10 11 -10 25 0 16 -6 25 -15 25 -9 0 -15
-9 -15 -25z"/>
<path d="M706 428 c-19 -26 -21 -87 -4 -123 16 -36 70 -36 86 0 16 34 15 35
-8 35 -12 0 -20 -7 -20 -16 0 -23 -24 -11 -28 14 -3 19 1 22 34 22 36 0 36 1
30 32 -3 17 -11 37 -17 45 -17 20 -56 16 -73 -9z m54 -34 c0 -8 -7 -14 -15
-14 -15 0 -21 21 -9 33 10 9 24 -2 24 -19z"/>
<path d="M926 428 c-19 -26 -21 -87 -4 -123 8 -18 19 -25 40 -25 33 0 39 25 7
33 -17 5 -20 12 -17 54 2 39 6 48 21 47 10 -1 17 5 17 17 0 27 -45 25 -64 -3z"/>
<path d="M1036 428 c-18 -25 -21 -84 -6 -122 8 -21 16 -26 45 -26 29 0 37 5
45 26 26 66 1 144 -45 144 -13 0 -31 -10 -39 -22z m52 -69 c-2 -24 -7 -44 -13
-44 -12 0 -19 69 -10 93 11 29 26 -4 23 -49z"/>
<path d="M1170 364 c0 -67 3 -84 15 -84 11 0 15 16 17 67 2 42 8 68 16 71 9 3
12 -15 12 -67 0 -65 2 -71 20 -71 20 0 21 5 18 83 l-3 82 -47 2 -48 2 0 -85z"/>
<path d="M1410 435 c-17 -21 -18 -119 -1 -139 19 -23 68 -21 81 3 5 11 10 24
10 30 0 17 -28 13 -38 -5 -12 -21 -32 -10 -32 17 0 15 7 19 35 19 30 0 35 3
35 23 0 54 -60 88 -90 52z m50 -35 c0 -11 -7 -20 -15 -20 -15 0 -21 21 -8 33
12 13 23 7 23 -13z"/>
<path d="M1540 364 c0 -67 3 -84 15 -84 11 0 15 16 17 67 2 42 8 68 16 71 9 3
12 -15 12 -67 0 -65 2 -71 20 -71 20 0 21 5 18 83 l-3 82 -47 2 -48 2 0 -85z"/>
<path d="M2006 428 c-9 -12 -16 -41 -16 -63 0 -22 7 -51 16 -63 20 -28 69 -30
84 -3 16 31 12 117 -6 135 -22 23 -60 20 -78 -6z m54 -69 c0 -36 -4 -49 -12
-47 -14 5 -23 70 -14 95 11 28 26 1 26 -48z"/>
<path d="M2140 364 c0 -67 3 -84 15 -84 11 0 15 16 17 67 2 42 8 68 16 71 9 3
12 -15 12 -67 0 -64 2 -71 20 -71 17 0 19 8 22 67 2 42 8 68 16 71 9 3 12 -15
12 -67 0 -64 2 -71 20 -71 18 0 20 7 20 73 0 39 -4 77 -8 84 -5 7 -35 11 -85
11 l-77 -1 0 -83z"/>
<path d="M2359 433 c-8 -9 -14 -39 -14 -68 0 -61 16 -85 56 -85 22 0 32 6 39
26 13 34 13 34 -10 34 -12 0 -20 -7 -20 -16 0 -23 -24 -11 -28 14 -3 19 1 22
34 22 36 0 36 1 30 32 -3 17 -11 37 -17 45 -16 18 -54 16 -70 -4z m51 -39 c0
-8 -7 -14 -15 -14 -15 0 -21 21 -9 33 10 9 24 -2 24 -19z"/>
<path d="M460 89 c0 -44 4 -68 10 -64 6 3 10 19 10 35 0 15 6 31 13 33 10 4
10 6 0 6 -19 1 -16 32 5 47 15 12 14 13 -10 14 -28 0 -28 0 -28 -71z"/>
<path d="M564 137 c-18 -72 19 -146 52 -103 17 24 19 97 2 114 -20 20 -47 14
-54 -11z m44 -44 c-4 -66 -28 -70 -28 -4 0 39 4 51 16 51 12 0 14 -10 12 -47z"/>
<path d="M691 88 c1 -47 4 -63 8 -44 l6 30 14 -30 c7 -16 16 -24 18 -17 2 7
-1 21 -7 33 -9 16 -8 25 0 35 19 22 8 60 -17 63 -22 3 -23 1 -22 -70z m29 31
c0 -11 -4 -17 -10 -14 -5 3 -10 13 -10 21 0 8 5 14 10 14 6 0 10 -9 10 -21z"/>
<path d="M880 90 c0 -40 4 -70 10 -70 6 0 10 30 10 70 0 40 -4 70 -10 70 -6 0
-10 -30 -10 -70z"/>
<path d="M965 113 c-3 -27 -8 -56 -10 -65 -2 -10 1 -21 6 -24 5 -3 9 6 9 20 0
14 5 28 10 31 6 3 10 -4 10 -18 0 -40 14 -40 26 0 l12 38 1 -37 c1 -21 6 -38
11 -38 7 0 9 14 5 35 -3 19 -7 51 -11 70 -6 43 -24 37 -24 -8 0 -24 -3 -28
-10 -17 -5 8 -10 25 -10 38 0 41 -19 23 -25 -25z"/>
<path d="M1110 143 c0 -10 -3 -43 -6 -73 -7 -60 5 -62 16 -3 l8 38 1 -37 c1
-42 18 -60 25 -26 3 13 7 32 9 43 3 11 5 3 6 -17 0 -20 6 -40 13 -44 8 -5 9 6
5 41 -4 26 -7 58 -7 71 0 39 -18 27 -27 -18 l-9 -43 -7 43 c-7 41 -27 59 -27
25z"/>
<path d="M1250 90 c0 -63 2 -70 20 -70 11 0 20 5 20 10 0 6 -7 10 -15 10 -20
0 -19 39 1 47 15 5 15 7 0 15 -20 11 -21 38 -1 38 8 0 15 5 15 10 0 6 -9 10
-20 10 -18 0 -20 -7 -20 -70z"/>
<path d="M1350 90 c0 -40 4 -70 10 -70 6 0 10 10 11 23 l0 22 11 -22 c6 -13
15 -23 20 -23 11 0 10 7 -7 40 -9 17 -11 30 -6 30 13 0 20 35 9 54 -5 9 -18
16 -28 16 -18 0 -20 -7 -20 -70z m40 36 c0 -8 -4 -18 -10 -21 -5 -3 -10 3 -10
14 0 12 5 21 10 21 6 0 10 -6 10 -14z"/>
<path d="M1467 153 c-14 -14 -6 -53 13 -65 11 -7 20 -21 20 -32 0 -13 -5 -17
-20 -13 -23 6 -27 -11 -5 -19 19 -8 45 13 45 36 0 9 -9 25 -20 35 -24 21 -26
45 -5 45 8 0 15 5 15 10 0 11 -33 14 -43 3z"/>
<path d="M1583 90 c0 -41 2 -58 4 -38 2 21 2 55 0 76 -2 20 -4 3 -4 -38z"/>
<path d="M1655 113 c7 -51 23 -98 30 -91 9 9 32 138 25 138 -10 0 -20 -26 -20
-51 0 -11 -4 -17 -10 -14 -5 3 -10 19 -10 36 0 16 -5 29 -11 29 -8 0 -9 -15
-4 -47z"/>
<path d="M1770 90 c0 -63 2 -70 19 -70 11 0 23 5 26 10 3 6 -1 10 -9 10 -19 0
-22 46 -3 53 10 4 10 6 0 6 -19 1 -16 32 5 47 15 12 14 13 -10 14 -28 0 -28 0
-28 -70z"/>
<path d="M1968 154 c-12 -20 -19 -136 -9 -129 6 3 11 23 12 43 l1 37 10 -43
c10 -48 27 -47 29 1 l1 32 8 -33 c17 -74 26 -40 14 52 -4 25 -10 46 -14 46 -4
0 -12 -19 -17 -42 -10 -38 -11 -40 -12 -13 -1 33 -16 62 -23 49z"/>
<path d="M2100 90 c0 -63 2 -70 19 -70 11 0 23 5 26 10 3 6 -1 10 -9 10 -19 0
-22 46 -3 53 10 4 10 6 0 6 -19 1 -16 32 5 47 15 12 14 13 -10 14 -28 0 -28 0
-28 -70z"/>
<path d="M2200 95 c0 -49 4 -67 15 -71 26 -10 45 16 45 61 0 59 -8 75 -36 75
-23 0 -24 -3 -24 -65z m44 20 c7 -29 -2 -75 -15 -75 -5 0 -9 23 -9 50 0 53 14
67 24 25z"/>
<path d="M2320 90 c0 -40 4 -70 10 -70 6 0 10 30 10 70 0 40 -4 70 -10 70 -6
0 -10 -30 -10 -70z"/>
<path d="M2401 94 c-11 -63 -9 -96 5 -60 8 20 34 21 34 0 0 -8 4 -13 9 -10 8
5 5 28 -14 114 -9 39 -21 24 -34 -44z m26 -16 c-3 -7 -5 -2 -5 12 0 14 2 19 5
13 2 -7 2 -19 0 -25z"/>
</g>
</svg>
